<svg width="118" height="118" viewBox="0 0 118 118" fill="none" xmlns="http://www.w3.org/2000/svg">
<path d="M45.0293 28.0851L43.0496 23.6307C41.7551 20.7182 41.1079 19.2619 40.1399 18.1475C38.9269 16.7508 37.3456 15.7232 35.5766 15.1819C34.1651 14.75 32.5715 14.75 29.3842 14.75C24.7218 14.75 22.3905 14.75 20.4335 15.6463C18.1283 16.702 16.0465 18.9945 15.217 21.3904C14.5128 23.4244 14.7145 25.5147 15.1179 29.6952C19.4118 74.1935 43.8078 98.5895 88.3058 102.883C92.4865 103.287 94.577 103.488 96.6106 102.784C99.0069 101.955 101.299 99.8727 102.355 97.5678C103.251 95.6105 103.251 93.2795 103.251 88.617C103.251 85.4295 103.251 83.836 102.819 82.4245C102.278 80.6555 101.25 79.0743 99.8536 77.8613C98.7395 76.8932 97.2832 76.2462 94.3705 74.9516L89.916 72.9717C86.762 71.5699 85.1847 70.8693 83.5824 70.7169C82.0484 70.5709 80.5021 70.7862 79.0664 71.3453C77.5663 71.9294 76.2408 73.0341 73.5888 75.2437C70.9495 77.4434 69.6299 78.5433 68.0172 79.1323C66.5874 79.6544 64.6975 79.8481 63.192 79.6259C61.4933 79.3757 60.1928 78.6809 57.5914 77.2905C49.4986 72.9658 45.0356 68.5029 40.7106 60.4096C39.3205 57.8087 38.6255 56.5077 38.3752 54.8095C38.1533 53.3036 38.3467 51.4136 38.8689 49.9843C39.458 48.3715 40.5579 47.0518 42.7575 44.4122C44.9672 41.7606 46.072 40.4348 46.6562 38.9346C47.2152 37.4991 47.4304 35.9526 47.2845 34.419C47.1321 32.8164 46.4312 31.2393 45.0293 28.0851Z" stroke="#F0F0F0" stroke-width="8.5" stroke-linecap="round"/>
</svg>
