<svg width="24" height="24" viewBox="0 0 24 24" fill="none" xmlns="http://www.w3.org/2000/svg">
<path d="M2 19.5C2 19.7761 2.22386 20 2.5 20L21.5 20C21.7761 20 22 19.7761 22 19.5V19.5C22 19.2239 21.7761 19 21.5 19H20.1395C20.0625 19 20 18.9375 20 18.8605V7.06213C20 7.02235 19.9842 6.9842 19.9561 6.95607L17.0439 4.04393C17.0158 4.0158 16.9777 4 16.9379 4L6 4C4.89543 4 4 4.89543 4 6L4 18.8605C4 18.9375 3.93753 19 3.86047 19H2.5C2.22386 19 2 19.2239 2 19.5V19.5Z" fill="#F2F2F7"/>
<path d="M12 8.5V14" stroke="#222222" stroke-linecap="round"/>
<path d="M9.5 12.5L11.9063 14.425C11.9611 14.4689 12.0389 14.4689 12.0937 14.425L14.5 12.5" stroke="#222222" stroke-linecap="round"/>
<path d="M2.5 19.5L21.5 19.5" stroke="#222222" stroke-linecap="round"/>
<path d="M17.0439 4.04393L19.9561 6.95607C19.9842 6.9842 20 7.02235 20 7.06213V7.85C20 7.93284 19.9328 8 19.85 8L17 8C16.4477 8 16 7.55228 16 7V4.15C16 4.06716 16.0672 4 16.15 4H16.9379C16.9777 4 17.0158 4.0158 17.0439 4.04393Z" fill="#222222"/>
</svg>
