<svg width="290" height="290" viewBox="0 0 290 290" fill="none" xmlns="http://www.w3.org/2000/svg">
<g clip-path="url(#clip0_64_19)">
<path d="M270 0H20C8.9543 0 0 8.9543 0 20V270C0 281.046 8.9543 290 20 290H270C281.046 290 290 281.046 290 270V20C290 8.9543 281.046 0 270 0Z" fill="#DBEAFE"/>
<path d="M246.17 11.0074C245.05 11.271 213.611 29.2642 181.25 48.1142C148.954 66.8983 64.459 115.407 64.3931 115.275C64.3272 115.144 63.5363 113.562 62.6136 111.782C59.7795 106.114 53.7159 102.621 46.7295 102.687C36.184 102.753 28.6704 110.332 28.7363 120.944C28.7363 124.898 28.9999 126.15 30.8454 129.512C32.8227 133.137 32.9545 133.532 31.8999 134.125C29.0659 135.773 25.7045 139.332 25.0454 141.441C23.859 144.934 24.7818 149.219 27.1545 151.921C29.5931 154.755 30.8454 154.821 33.3499 152.184C35.9863 149.35 41.0613 146.912 45.1477 146.516C55.8909 145.396 65.2499 154.096 65.2499 165.169C65.2499 167.08 64.9204 169.453 64.5909 170.441C64.1954 171.43 64.0636 172.748 64.2613 173.407C64.7227 174.857 244.523 278.796 247.423 279.257C252.629 280.114 259.089 275.698 260.011 270.755C260.209 269.569 260.275 254.475 260.209 237.207L260.011 205.769L252.827 218.291L245.643 230.814L226.464 230.484C206.493 230.155 203.461 229.825 193.773 226.596C168.398 218.291 147.966 197.991 139.464 172.682C136.036 162.4 134.916 154.491 135.311 143.023C135.773 128.853 137.882 120.416 144.077 107.762C153.766 87.8573 171.891 72.0392 193.245 64.9869C204.384 61.2301 205.439 61.1642 233.845 60.8346L260.341 60.5051V40.6664C260.341 29.6596 260.011 19.7074 259.682 18.4551C258.957 15.7528 255.661 12.2596 252.893 11.271C250.982 10.546 248.477 10.4142 246.17 11.0074Z" fill="#3C3C3C"/>
<path d="M212.754 87.0663C187.841 90.6913 168.727 108.355 162.993 133.005C160.489 144.012 162.004 159.303 166.618 169.584C174.329 186.589 188.236 198.189 206.954 203.198C211.37 204.384 214.534 204.582 236.152 204.78L260.341 205.109V145.725V86.3413L238.459 86.4072C226.398 86.4731 214.798 86.7368 212.754 87.0663Z" fill="#3C3C3C"/>
<path d="M36.7772 183.03C36.1181 183.886 35.9204 193.048 35.9204 230.089V276.159L37.7659 277.939C39.5454 279.718 39.809 279.784 46.7954 279.784C53.7818 279.784 54.0454 279.718 55.825 277.939L57.6704 276.159V230.089C57.6704 193.048 57.4727 183.886 56.8136 183.03C56.0227 182.107 55.6272 182.107 53.2545 182.964C51.8045 183.491 48.9045 183.886 46.7954 183.886C44.6863 183.886 41.7863 183.491 40.3363 182.964C37.9636 182.107 37.5681 182.107 36.7772 183.03Z" fill="#3C3C3C"/>
<path d="M71.5113 208.207C70.7863 208.536 69.5999 209.459 68.8749 210.25C67.6227 211.634 67.5568 212.623 67.5568 243.93V276.159L69.4022 277.939C71.1818 279.718 71.4454 279.784 78.4318 279.784C85.4181 279.784 85.6818 279.718 87.4613 277.939L89.3068 276.159L89.6363 262.45C89.8999 250.191 90.0977 248.543 91.3499 246.5C95.3704 239.646 106.311 239.646 110.332 246.5C111.584 248.543 111.782 250.191 112.045 262.45L112.375 276.159L114.22 277.939C116 279.718 116.264 279.784 123.25 279.784C130.236 279.784 130.5 279.718 132.279 277.939L134.125 276.159L134.323 261.989C134.52 246.171 134.059 242.084 131.159 236.152C125.689 225.014 111.518 217.302 98.4681 218.423C95.8977 218.686 92.8659 219.148 91.6795 219.477L89.6363 220.071V216.116C89.6363 212.755 89.3727 211.964 87.7249 210.118C85.8136 207.943 85.7477 207.943 79.2886 207.811C75.7295 207.68 72.2363 207.877 71.5113 208.207Z" fill="#3C3C3C"/>
</g>
<defs>
<clipPath id="clip0_64_19">
<rect width="290" height="290" fill="white"/>
</clipPath>
</defs>
</svg>
